<svg width="106" height="106" viewBox="0 0 106 106" fill="none" xmlns="http://www.w3.org/2000/svg">
<g id="logo_icon">
<g id="logo_dark">
<g id="Group 3">
<path id="Oval Copy 3" fill-rule="evenodd" clip-rule="evenodd" d="M19 25C19 11.1343 30.6634 0 44.4839 0C58.3169 0 69 11.1498 69 25C69 38.8502 58.3169 50 44.4839 50L44.0498 50.0036C40.1847 50.0677 37.426 50.9954 35.4018 52.6822L19 66.3504V25ZM59 25C59 16.6544 52.7681 10 44.4839 10C36.1996 10 29 16.6544 29 25V45L29.356 44.7102C33.3046 41.5701 38.3472 40 44.4839 40L44.8056 39.9966C52.929 39.8269 59 33.2373 59 25Z" fill="#E91414"/>
<g id="Mask">
<path fill-rule="evenodd" clip-rule="evenodd" d="M43.931 40C30.464 40 19.5101 50.1906 19.0173 63.5762L19.0039 64.0873L19 64.5132C19 86.9272 37.1702 105.097 59.5842 105.097L60.1322 105.094L86.4474 104.738L75.0874 89.1183C71.1342 83.6827 69 75.5496 69 64.5132C69 50.6913 57.7358 40 43.931 40ZM43.931 50C52.2153 50 59 56.2289 59 64.5132C59 77.2638 61.5688 87.2893 66.7064 94.5897L67 95L59.9972 95.0946C59.8595 95.0964 59.7219 95.0974 59.5842 95.0974C42.8619 95.0974 29.2742 81.6768 29.0041 65.0189L29 64.5132L29.0034 64.1914C29.1729 56.0681 35.7544 50 43.931 50Z" fill="#F52105"/>
<path fill-rule="evenodd" clip-rule="evenodd" d="M43.931 40C30.464 40 19.5101 50.1906 19.0173 63.5762L19.0039 64.0873L19 64.5132C19 86.9272 37.1702 105.097 59.5842 105.097L60.1322 105.094L86.4474 104.738L75.0874 89.1183C71.1342 83.6827 69 75.5496 69 64.5132C69 50.6913 57.7358 40 43.931 40ZM43.931 50C52.2153 50 59 56.2289 59 64.5132C59 77.2638 61.5688 87.2893 66.7064 94.5897L67 95L59.9972 95.0946C59.8595 95.0964 59.7219 95.0974 59.5842 95.0974C42.8619 95.0974 29.2742 81.6768 29.0041 65.0189L29 64.5132L29.0034 64.1914C29.1729 56.0681 35.7544 50 43.931 50Z" fill="url(#paint0_radial)"/>
</g>
<mask id="mask0" mask-type="alpha" maskUnits="userSpaceOnUse" x="19" y="40" width="68" height="66">
<g id="Mask_2">
<path fill-rule="evenodd" clip-rule="evenodd" d="M43.931 40C30.464 40 19.5101 50.1906 19.0173 63.5762L19.0039 64.0873L19 64.5132C19 86.9272 37.1702 105.097 59.5842 105.097L60.1322 105.094L86.4474 104.738L75.0874 89.1183C71.1342 83.6827 69 75.5496 69 64.5132C69 50.6913 57.7358 40 43.931 40ZM43.931 50C52.2153 50 59 56.2289 59 64.5132C59 77.2638 61.5688 87.2893 66.7064 94.5897L67 95L59.9972 95.0946C59.8595 95.0964 59.7219 95.0974 59.5842 95.0974C42.8619 95.0974 29.2742 81.6768 29.0041 65.0189L29 64.5132L29.0034 64.1914C29.1729 56.0681 35.7544 50 43.931 50Z" fill="white"/>
</g>
</mask>
<g mask="url(#mask0)">
</g>
</g>
</g>
</g>
<defs>
<radialGradient id="paint0_radial" cx="0" cy="0" r="1" gradientUnits="userSpaceOnUse" gradientTransform="translate(19 40) rotate(90) scale(37.0181 38.3544)">
<stop offset="0.000105574" stop-color="#E7D713" stop-opacity="0.5"/>
<stop offset="0.983821" stop-color="#F52105"/>
</radialGradient>
</defs>
</svg>
